<svg xmlns="http://www.w3.org/2000/svg" viewBox="0 0 320 160" width="320" height="160" preserveAspectRatio="xMidYMid slice" style="width: 100%; height: 100%; transform: translate3d(0px, 0px, 0px);"><defs><clipPath id="__lottie_element_348"><rect width="320" height="160" x="0" y="0"></rect></clipPath><mask id="__lottie_element_353"><path fill="#ffffff" clip-rule="nonzero" d=" M37.67100143432617,40.33000183105469 C37.67100143432617,40.33000183105469 95.52200317382812,40.33000183105469 95.52200317382812,40.33000183105469 C96.6259994506836,40.33000183105469 97.52200317382812,39.435001373291016 97.52200317382812,38.33000183105469 C97.52200317382812,38.33000183105469 97.52200317382812,-31.892000198364258 97.52200317382812,-31.892000198364258 C97.52200317382812,-32.99700164794922 96.6259994506836,-33.891998291015625 95.52200317382812,-33.891998291015625 C95.52200317382812,-33.891998291015625 37.67100143432617,-33.891998291015625 37.67100143432617,-33.891998291015625 C36.566001892089844,-33.891998291015625 35.67100143432617,-32.99700164794922 35.67100143432617,-31.892000198364258 C35.67100143432617,-31.892000198364258 35.67100143432617,38.33000183105469 35.67100143432617,38.33000183105469 C35.67100143432617,39.435001373291016 36.566001892089844,40.33000183105469 37.67100143432617,40.33000183105469" fill-opacity="1"></path></mask></defs><g clip-path="url(#__lottie_element_348)"><g transform="matrix(1,0,0,1,52.25,24.39299774169922)" opacity="1" style="display: block;"><g opacity="1" transform="matrix(1,0,0,1,50.040000915527344,91.6989974975586)"><path fill="rgb(246,248,249)" fill-opacity="1" d=" M21.94099998474121,-17.409000396728516 C15.437000274658203,-15.215999603271484 7.995999813079834,-14.159000396728516 0,-14.159000396728516 C-7.995999813079834,-14.159000396728516 -15.437000274658203,-15.215999603271484 -21.94099998474121,-17.409000396728516 C-47.20500183105469,-7.922999858856201 -46.388999938964844,17.409000396728516 -46.388999938964844,17.409000396728516 C-46.388999938964844,17.409000396728516 0,17.409000396728516 0,17.409000396728516 C0,17.409000396728516 46.38800048828125,17.409000396728516 46.38800048828125,17.409000396728516 C46.38800048828125,17.409000396728516 47.20500183105469,-7.922999858856201 21.94099998474121,-17.409000396728516z"></path></g><g opacity="1" transform="matrix(1,0,0,1,50.040000915527344,87.37000274658203)"><path fill="rgb(237,240,244)" fill-opacity="1" d=" M12.369999885559082,0.7089999914169312 C22.26099967956543,-0.5270000100135803 32.9109992980957,-6.880000114440918 32.92100143432617,-6.88700008392334 C29.958999633789062,-9.286999702453613 26.347999572753906,-11.425000190734863 21.94099998474121,-13.079000473022461 C15.437000274658203,-10.88599967956543 7.995999813079834,-9.829000473022461 0.0010000000474974513,-9.829000473022461 C-7.994999885559082,-9.829000473022461 -15.437000274658203,-10.88599967956543 -21.94099998474121,-13.079000473022461 C-26.347000122070312,-11.425000190734863 -29.958999633789062,-9.286999702453613 -32.92100143432617,-6.88700008392334 C-32.90999984741211,-6.880000114440918 -22.26099967956543,-0.5270000100135803 -12.369999885559082,0.7089999914169312 C-12.369999885559082,0.7089999914169312 -12.369999885559082,13.079000473022461 0.0010000000474974513,13.079000473022461 C12.371000289916992,13.079000473022461 12.369999885559082,0.7089999914169312 12.369999885559082,0.7089999914169312z"></path></g><g opacity="1" transform="matrix(1,0,0,1,50.040000915527344,89.6259994506836)"><path fill="rgb(204,233,234)" fill-opacity="1" d=" M5.875999927520752,0 C5.875999927520752,3.244999885559082 3.246000051498413,5.875999927520752 0.0010000000474974513,5.875999927520752 C-3.244999885559082,5.875999927520752 -5.875999927520752,3.244999885559082 -5.875999927520752,0 C-5.875999927520752,-3.244999885559082 -3.244999885559082,-5.875999927520752 0.0010000000474974513,-5.875999927520752 C3.246000051498413,-5.875999927520752 5.875999927520752,-3.244999885559082 5.875999927520752,0z"></path></g><g opacity="1" transform="matrix(1,0,0,1,10.550000190734863,39.92399978637695)"><path fill="rgb(237,240,244)" fill-opacity="1" d=" M0.09399999678134918,13.208000183105469 C0.09399999678134918,13.208000183105469 -0.09399999678134918,13.208000183105469 -0.09399999678134918,13.208000183105469 C-5.730999946594238,13.208000183105469 -10.300000190734863,8.640000343322754 -10.300000190734863,3.003000020980835 C-10.300000190734863,3.003000020980835 -10.300000190734863,-3.003000020980835 -10.300000190734863,-3.003000020980835 C-10.300000190734863,-8.638999938964844 -5.730999946594238,-13.208000183105469 -0.09399999678134918,-13.208000183105469 C-0.09399999678134918,-13.208000183105469 0.09399999678134918,-13.208000183105469 0.09399999678134918,-13.208000183105469 C5.730000019073486,-13.208000183105469 10.300000190734863,-8.638999938964844 10.300000190734863,-3.003000020980835 C10.300000190734863,-3.003000020980835 10.300000190734863,3.003000020980835 10.300000190734863,3.003000020980835 C10.300000190734863,8.640000343322754 5.730000019073486,13.208000183105469 0.09399999678134918,13.208000183105469z"></path></g><g opacity="1" transform="matrix(1,0,0,1,90.44999694824219,39.92399978637695)"><path fill="rgb(237,240,244)" fill-opacity="1" d=" M-0.09399999678134918,13.208000183105469 C-0.09399999678134918,13.208000183105469 0.09399999678134918,13.208000183105469 0.09399999678134918,13.208000183105469 C5.730999946594238,13.208000183105469 10.300000190734863,8.640000343322754 10.300000190734863,3.003000020980835 C10.300000190734863,3.003000020980835 10.300000190734863,-3.003000020980835 10.300000190734863,-3.003000020980835 C10.300000190734863,-8.638999938964844 5.730999946594238,-13.208000183105469 0.09399999678134918,-13.208000183105469 C0.09399999678134918,-13.208000183105469 -0.09399999678134918,-13.208000183105469 -0.09399999678134918,-13.208000183105469 C-5.730000019073486,-13.208000183105469 -10.300000190734863,-8.638999938964844 -10.300000190734863,-3.003000020980835 C-10.300000190734863,-3.003000020980835 -10.300000190734863,3.003000020980835 -10.300000190734863,3.003000020980835 C-10.300000190734863,8.640000343322754 -5.730000019073486,13.208000183105469 -0.09399999678134918,13.208000183105469z"></path></g><g opacity="1" transform="matrix(1,0,0,1,50.040000915527344,36.74300003051758)"><path fill="rgb(246,248,249)" fill-opacity="1" d=" M42.058998107910156,2.4000000953674316 C42.058998107910156,26.180999755859375 23.722999572753906,36.492000579833984 0,36.492000579833984 C-23.722999572753906,36.492000579833984 -42.058998107910156,26.180999755859375 -42.058998107910156,2.4000000953674316 C-42.058998107910156,-21.381000518798828 -23.722999572753906,-36.492000579833984 0,-36.492000579833984 C23.722999572753906,-36.492000579833984 42.058998107910156,-21.381000518798828 42.058998107910156,2.4000000953674316z"></path></g><g opacity="1" transform="matrix(1,0,0,1,50.040000915527344,39.14400100708008)"><path fill="rgb(39,43,48)" fill-opacity="1" d=" M18.555999755859375,13.607000350952148 C18.555999755859375,13.607000350952148 -18.55500030517578,13.607000350952148 -18.55500030517578,13.607000350952148 C-26.06999969482422,13.607000350952148 -32.16299819946289,7.514999866485596 -32.16299819946289,0 C-32.16299819946289,-7.514999866485596 -26.06999969482422,-13.607000350952148 -18.55500030517578,-13.607000350952148 C-18.55500030517578,-13.607000350952148 18.555999755859375,-13.607000350952148 18.555999755859375,-13.607000350952148 C26.070999145507812,-13.607000350952148 32.16299819946289,-7.514999866485596 32.16299819946289,0 C32.16299819946289,7.514999866485596 26.070999145507812,13.607000350952148 18.555999755859375,13.607000350952148z"></path></g><g opacity="1" transform="matrix(1,0,0,1,50.5,9.208000183105469)"><path fill="rgb(237,240,244)" fill-opacity="1" d=" M8.739999771118164,-7.9019999504089355 C5.929999828338623,-8.36299991607666 3.009000062942505,-8.60099983215332 0.0010000000474974513,-8.60099983215332 C-3.006999969482422,-8.60099983215332 -5.928999900817871,-8.36299991607666 -8.739999771118164,-7.9019999504089355 C-8.739999771118164,-7.9019999504089355 -8.739999771118164,0 -8.739999771118164,0 C-8.739999771118164,4.75 -4.826000213623047,8.60099983215332 0.0010000000474974513,8.60099983215332 C4.827000141143799,8.60099983215332 8.739999771118164,4.75 8.739999771118164,0 C8.739999771118164,0 8.739999771118164,-7.9019999504089355 8.739999771118164,-7.9019999504089355z"></path></g></g><g transform="matrix(1,0,0,1,81.93700408935547,59.57600021362305)" opacity="1" style="display: block;"><g opacity="1" transform="matrix(1,0,0,1,5.460999965667725,3.9609999656677246)"><path fill="rgb(0,188,184)" fill-opacity="1" d=" M3.7109999656677246,0 C3.7109999656677246,2.049999952316284 2.049999952316284,3.7109999656677246 0,3.7109999656677246 C-2.0490000247955322,3.7109999656677246 -3.7109999656677246,2.049999952316284 -3.7109999656677246,0 C-3.7109999656677246,-2.0490000247955322 -2.0490000247955322,-3.7109999656677246 0,-3.7109999656677246 C2.049999952316284,-3.7109999656677246 3.7109999656677246,-2.0490000247955322 3.7109999656677246,0z"></path></g><g opacity="1" transform="matrix(1,0,0,1,35.24599838256836,3.9609999656677246)"><path fill="rgb(0,188,184)" fill-opacity="1" d=" M-3.7109999656677246,0 C-3.7109999656677246,2.049999952316284 -2.0490000247955322,3.7109999656677246 0,3.7109999656677246 C2.049999952316284,3.7109999656677246 3.7109999656677246,2.049999952316284 3.7109999656677246,0 C3.7109999656677246,-2.0490000247955322 2.049999952316284,-3.7109999656677246 0,-3.7109999656677246 C-2.0490000247955322,-3.7109999656677246 -3.7109999656677246,-2.0490000247955322 -3.7109999656677246,0z"></path></g></g><g transform="matrix(1,0,0,1,203.72799682617188,53.71299743652344)" opacity="1" style="display: none;"><g opacity="1" transform="matrix(1,0,0,1,30.924999237060547,37.111000061035156)"><path fill="rgb(237,240,244)" fill-opacity="1" d=" M-28.926000595092773,37.111000061035156 C-28.926000595092773,37.111000061035156 28.926000595092773,37.111000061035156 28.926000595092773,37.111000061035156 C30.030000686645508,37.111000061035156 30.926000595092773,36.21500015258789 30.926000595092773,35.111000061035156 C30.926000595092773,35.111000061035156 30.926000595092773,-35.111000061035156 30.926000595092773,-35.111000061035156 C30.926000595092773,-36.215999603271484 30.030000686645508,-37.111000061035156 28.926000595092773,-37.111000061035156 C28.926000595092773,-37.111000061035156 -28.926000595092773,-37.111000061035156 -28.926000595092773,-37.111000061035156 C-30.030000686645508,-37.111000061035156 -30.926000595092773,-36.215999603271484 -30.926000595092773,-35.111000061035156 C-30.926000595092773,-35.111000061035156 -30.926000595092773,35.111000061035156 -30.926000595092773,35.111000061035156 C-30.926000595092773,36.21500015258789 -30.030000686645508,37.111000061035156 -28.926000595092773,37.111000061035156z"></path></g></g><g transform="matrix(1,0,0,1,203.4770050048828,53.46299743652344)" opacity="1" style="display: block;"><g opacity="1" transform="matrix(1,0,0,1,31.176000595092773,37.361000061035156)"><path fill="rgb(237,240,244)" fill-opacity="1" d=" M-28.926000595092773,37.111000061035156 C-28.926000595092773,37.111000061035156 28.926000595092773,37.111000061035156 28.926000595092773,37.111000061035156 C30.030000686645508,37.111000061035156 30.926000595092773,36.21500015258789 30.926000595092773,35.111000061035156 C30.926000595092773,35.111000061035156 30.926000595092773,-35.111000061035156 30.926000595092773,-35.111000061035156 C30.926000595092773,-36.215999603271484 30.030000686645508,-37.111000061035156 28.926000595092773,-37.111000061035156 C28.926000595092773,-37.111000061035156 -28.926000595092773,-37.111000061035156 -28.926000595092773,-37.111000061035156 C-30.030000686645508,-37.111000061035156 -30.926000595092773,-36.215999603271484 -30.926000595092773,-35.111000061035156 C-30.926000595092773,-35.111000061035156 -30.926000595092773,35.111000061035156 -30.926000595092773,35.111000061035156 C-30.926000595092773,36.21500015258789 -30.030000686645508,37.111000061035156 -28.926000595092773,37.111000061035156z"></path></g></g><g transform="matrix(1,0,0,1,199.76600646972656,49.75199890136719)" opacity="1" style="display: block;"><g opacity="1" transform="matrix(1,0,0,1,31.176000595092773,37.361000061035156)"><path fill="rgb(246,248,249)" fill-opacity="1" d=" M-28.926000595092773,37.111000061035156 C-28.926000595092773,37.111000061035156 28.926000595092773,37.111000061035156 28.926000595092773,37.111000061035156 C30.030000686645508,37.111000061035156 30.926000595092773,36.21500015258789 30.926000595092773,35.111000061035156 C30.926000595092773,35.111000061035156 30.926000595092773,-35.111000061035156 30.926000595092773,-35.111000061035156 C30.926000595092773,-36.21500015258789 30.030000686645508,-37.111000061035156 28.926000595092773,-37.111000061035156 C28.926000595092773,-37.111000061035156 -28.926000595092773,-37.111000061035156 -28.926000595092773,-37.111000061035156 C-30.030000686645508,-37.111000061035156 -30.926000595092773,-36.21500015258789 -30.926000595092773,-35.111000061035156 C-30.926000595092773,-35.111000061035156 -30.926000595092773,35.111000061035156 -30.926000595092773,35.111000061035156 C-30.926000595092773,36.21500015258789 -30.030000686645508,37.111000061035156 -28.926000595092773,37.111000061035156z"></path></g><g opacity="1" transform="matrix(1,0,0,1,16.356000900268555,15.295999526977539)"><path fill="rgb(237,240,244)" fill-opacity="1" d=" M5.896999835968018,9.895999908447266 C5.896999835968018,9.895999908447266 -5.896999835968018,9.895999908447266 -5.896999835968018,9.895999908447266 C-8.105999946594238,9.895999908447266 -9.897000312805176,8.104999542236328 -9.897000312805176,5.895999908447266 C-9.897000312805176,5.895999908447266 -9.897000312805176,-5.895999908447266 -9.897000312805176,-5.895999908447266 C-9.897000312805176,-8.104999542236328 -8.105999946594238,-9.895999908447266 -5.896999835968018,-9.895999908447266 C-5.896999835968018,-9.895999908447266 5.896999835968018,-9.895999908447266 5.896999835968018,-9.895999908447266 C8.105999946594238,-9.895999908447266 9.897000312805176,-8.104999542236328 9.897000312805176,-5.895999908447266 C9.897000312805176,-5.895999908447266 9.897000312805176,5.895999908447266 9.897000312805176,5.895999908447266 C9.897000312805176,8.104999542236328 8.105999946594238,9.895999908447266 5.896999835968018,9.895999908447266z"></path></g><g opacity="1" transform="matrix(1,0,0,1,31.201000213623047,35.233001708984375)"><path fill="rgb(237,240,244)" fill-opacity="1" d=" M22.740999221801758,2 C22.740999221801758,2 -22.740999221801758,2 -22.740999221801758,2 C-23.84600067138672,2 -24.740999221801758,1.1039999723434448 -24.740999221801758,0 C-24.740999221801758,-1.1039999723434448 -23.84600067138672,-2 -22.740999221801758,-2 C-22.740999221801758,-2 22.740999221801758,-2 22.740999221801758,-2 C23.844999313354492,-2 24.740999221801758,-1.1039999723434448 24.740999221801758,0 C24.740999221801758,1.1039999723434448 23.844999313354492,2 22.740999221801758,2z"></path></g><g opacity="1" transform="matrix(1,0,0,1,43.57099914550781,9.420000076293945)"><path fill="rgb(237,240,244)" fill-opacity="1" d=" M11.298999786376953,4.020999908447266 C11.298999786376953,4.020999908447266 -11.298999786376953,4.020999908447266 -11.298999786376953,4.020999908447266 C-12.402999877929688,4.020999908447266 -13.298999786376953,3.125999927520752 -13.298999786376953,2.0209999084472656 C-13.298999786376953,2.0209999084472656 -13.298999786376953,-2.0199999809265137 -13.298999786376953,-2.0199999809265137 C-13.298999786376953,-3.124000072479248 -12.402999877929688,-4.020999908447266 -11.298999786376953,-4.020999908447266 C-11.298999786376953,-4.020999908447266 11.298999786376953,-4.020999908447266 11.298999786376953,-4.020999908447266 C12.402999877929688,-4.020999908447266 13.298999786376953,-3.124000072479248 13.298999786376953,-2.0199999809265137 C13.298999786376953,-2.0199999809265137 13.298999786376953,2.0209999084472656 13.298999786376953,2.0209999084472656 C13.298999786376953,3.125999927520752 12.402999877929688,4.020999908447266 11.298999786376953,4.020999908447266z"></path></g><g opacity="1" transform="matrix(1,0,0,1,40.47800064086914,21.172000885009766)"><path fill="rgb(237,240,244)" fill-opacity="1" d=" M8.206000328063965,4.020999908447266 C8.206000328063965,4.020999908447266 -8.206000328063965,4.020999908447266 -8.206000328063965,4.020999908447266 C-9.310999870300293,4.020999908447266 -10.206000328063965,3.125 -10.206000328063965,2.0209999084472656 C-10.206000328063965,2.0209999084472656 -10.206000328063965,-2.0199999809265137 -10.206000328063965,-2.0199999809265137 C-10.206000328063965,-3.124000072479248 -9.310999870300293,-4.020999908447266 -8.206000328063965,-4.020999908447266 C-8.206000328063965,-4.020999908447266 8.206000328063965,-4.020999908447266 8.206000328063965,-4.020999908447266 C9.3100004196167,-4.020999908447266 10.206000328063965,-3.124000072479248 10.206000328063965,-2.0199999809265137 C10.206000328063965,-2.0199999809265137 10.206000328063965,2.0209999084472656 10.206000328063965,2.0209999084472656 C10.206000328063965,3.125 9.3100004196167,4.020999908447266 8.206000328063965,4.020999908447266z"></path></g><g opacity="1" transform="matrix(1,0,0,1,31.201000213623047,43.8650016784668)"><path fill="rgb(237,240,244)" fill-opacity="1" d=" M22.740999221801758,2 C22.740999221801758,2 -22.740999221801758,2 -22.740999221801758,2 C-23.84600067138672,2 -24.740999221801758,1.1039999723434448 -24.740999221801758,0 C-24.740999221801758,-1.1039999723434448 -23.84600067138672,-2 -22.740999221801758,-2 C-22.740999221801758,-2 22.740999221801758,-2 22.740999221801758,-2 C23.844999313354492,-2 24.740999221801758,-1.1039999723434448 24.740999221801758,0 C24.740999221801758,1.1039999723434448 23.844999313354492,2 22.740999221801758,2z"></path></g><g opacity="1" transform="matrix(1,0,0,1,23.777999877929688,52.49599838256836)"><path fill="rgb(237,240,244)" fill-opacity="1" d=" M15.319000244140625,2 C15.319000244140625,2 -15.319000244140625,2 -15.319000244140625,2 C-16.42300033569336,2 -17.319000244140625,1.1039999723434448 -17.319000244140625,0 C-17.319000244140625,-1.1039999723434448 -16.42300033569336,-2 -15.319000244140625,-2 C-15.319000244140625,-2 15.319000244140625,-2 15.319000244140625,-2 C16.42300033569336,-2 17.319000244140625,-1.1039999723434448 17.319000244140625,0 C17.319000244140625,1.1039999723434448 16.42300033569336,2 15.319000244140625,2z"></path></g></g><g transform="matrix(1,0,0,1,196.05499267578125,46.04100036621094)" opacity="1" style="display: block;"><g opacity="1" transform="matrix(1,0,0,1,31.174999237060547,37.361000061035156)"><path fill="rgb(255,255,255)" fill-opacity="1" d=" M-28.926000595092773,37.111000061035156 C-28.926000595092773,37.111000061035156 28.926000595092773,37.111000061035156 28.926000595092773,37.111000061035156 C30.030000686645508,37.111000061035156 30.926000595092773,36.21500015258789 30.926000595092773,35.111000061035156 C30.926000595092773,35.111000061035156 30.926000595092773,-35.111000061035156 30.926000595092773,-35.111000061035156 C30.926000595092773,-36.21500015258789 30.030000686645508,-37.111000061035156 28.926000595092773,-37.111000061035156 C28.926000595092773,-37.111000061035156 -28.926000595092773,-37.111000061035156 -28.926000595092773,-37.111000061035156 C-30.030000686645508,-37.111000061035156 -30.926000595092773,-36.21500015258789 -30.926000595092773,-35.111000061035156 C-30.926000595092773,-35.111000061035156 -30.926000595092773,35.111000061035156 -30.926000595092773,35.111000061035156 C-30.926000595092773,36.21500015258789 -30.030000686645508,37.111000061035156 -28.926000595092773,37.111000061035156z"></path></g><g opacity="1" transform="matrix(1,0,0,1,16.356000900268555,15.295999526977539)"><path fill="rgb(246,248,249)" fill-opacity="1" d=" M5.895999908447266,9.895999908447266 C5.895999908447266,9.895999908447266 -5.895999908447266,9.895999908447266 -5.895999908447266,9.895999908447266 C-8.104999542236328,9.895999908447266 -9.895999908447266,8.104999542236328 -9.895999908447266,5.895999908447266 C-9.895999908447266,5.895999908447266 -9.895999908447266,-5.895999908447266 -9.895999908447266,-5.895999908447266 C-9.895999908447266,-8.104999542236328 -8.104999542236328,-9.895999908447266 -5.895999908447266,-9.895999908447266 C-5.895999908447266,-9.895999908447266 5.895999908447266,-9.895999908447266 5.895999908447266,-9.895999908447266 C8.105999946594238,-9.895999908447266 9.895999908447266,-8.104999542236328 9.895999908447266,-5.895999908447266 C9.895999908447266,-5.895999908447266 9.895999908447266,5.895999908447266 9.895999908447266,5.895999908447266 C9.895999908447266,8.104999542236328 8.105999946594238,9.895999908447266 5.895999908447266,9.895999908447266z"></path></g><g opacity="1" transform="matrix(1,0,0,1,31.201000213623047,35.233001708984375)"><path fill="rgb(246,248,249)" fill-opacity="1" d=" M22.740999221801758,2 C22.740999221801758,2 -22.740999221801758,2 -22.740999221801758,2 C-23.84600067138672,2 -24.740999221801758,1.1039999723434448 -24.740999221801758,0 C-24.740999221801758,-1.1039999723434448 -23.84600067138672,-2 -22.740999221801758,-2 C-22.740999221801758,-2 22.740999221801758,-2 22.740999221801758,-2 C23.844999313354492,-2 24.740999221801758,-1.1039999723434448 24.740999221801758,0 C24.740999221801758,1.1039999723434448 23.844999313354492,2 22.740999221801758,2z"></path></g><g opacity="1" transform="matrix(1,0,0,1,43.57099914550781,9.420000076293945)"><path fill="rgb(246,248,249)" fill-opacity="1" d=" M11.298999786376953,4.020999908447266 C11.298999786376953,4.020999908447266 -11.298999786376953,4.020999908447266 -11.298999786376953,4.020999908447266 C-12.402999877929688,4.020999908447266 -13.298999786376953,3.125 -13.298999786376953,2.0209999084472656 C-13.298999786376953,2.0209999084472656 -13.298999786376953,-2.0199999809265137 -13.298999786376953,-2.0199999809265137 C-13.298999786376953,-3.124000072479248 -12.402999877929688,-4.020999908447266 -11.298999786376953,-4.020999908447266 C-11.298999786376953,-4.020999908447266 11.298999786376953,-4.020999908447266 11.298999786376953,-4.020999908447266 C12.402999877929688,-4.020999908447266 13.298999786376953,-3.124000072479248 13.298999786376953,-2.0199999809265137 C13.298999786376953,-2.0199999809265137 13.298999786376953,2.0209999084472656 13.298999786376953,2.0209999084472656 C13.298999786376953,3.125 12.402999877929688,4.020999908447266 11.298999786376953,4.020999908447266z"></path></g><g opacity="1" transform="matrix(1,0,0,1,40.47800064086914,21.172000885009766)"><path fill="rgb(246,248,249)" fill-opacity="1" d=" M8.206000328063965,4.020999908447266 C8.206000328063965,4.020999908447266 -8.206000328063965,4.020999908447266 -8.206000328063965,4.020999908447266 C-9.310999870300293,4.020999908447266 -10.206000328063965,3.125 -10.206000328063965,2.0209999084472656 C-10.206000328063965,2.0209999084472656 -10.206000328063965,-2.0199999809265137 -10.206000328063965,-2.0199999809265137 C-10.206000328063965,-3.125 -9.310999870300293,-4.020999908447266 -8.206000328063965,-4.020999908447266 C-8.206000328063965,-4.020999908447266 8.206000328063965,-4.020999908447266 8.206000328063965,-4.020999908447266 C9.3100004196167,-4.020999908447266 10.206000328063965,-3.125 10.206000328063965,-2.0199999809265137 C10.206000328063965,-2.0199999809265137 10.206000328063965,2.0209999084472656 10.206000328063965,2.0209999084472656 C10.206000328063965,3.125 9.3100004196167,4.020999908447266 8.206000328063965,4.020999908447266z"></path></g><g opacity="1" transform="matrix(1,0,0,1,31.201000213623047,43.8650016784668)"><path fill="rgb(246,248,249)" fill-opacity="1" d=" M22.740999221801758,2 C22.740999221801758,2 -22.740999221801758,2 -22.740999221801758,2 C-23.84600067138672,2 -24.740999221801758,1.1039999723434448 -24.740999221801758,0 C-24.740999221801758,-1.1039999723434448 -23.84600067138672,-2 -22.740999221801758,-2 C-22.740999221801758,-2 22.740999221801758,-2 22.740999221801758,-2 C23.844999313354492,-2 24.740999221801758,-1.1039999723434448 24.740999221801758,0 C24.740999221801758,1.1039999723434448 23.844999313354492,2 22.740999221801758,2z"></path></g><g opacity="1" transform="matrix(1,0,0,1,23.777999877929688,52.49599838256836)"><path fill="rgb(246,248,249)" fill-opacity="1" d=" M15.319000244140625,2 C15.319000244140625,2 -15.319000244140625,2 -15.319000244140625,2 C-16.42300033569336,2 -17.319000244140625,1.1039999723434448 -17.319000244140625,0 C-17.319000244140625,-1.1039999723434448 -16.42300033569336,-2 -15.319000244140625,-2 C-15.319000244140625,-2 15.319000244140625,-2 15.319000244140625,-2 C16.42300033569336,-2 17.319000244140625,-1.1039999723434448 17.319000244140625,0 C17.319000244140625,1.1039999723434448 16.42300033569336,2 15.319000244140625,2z"></path></g></g><g mask="url(#__lottie_element_353)" transform="matrix(1,0,0,1,160.625,80.125)" opacity="0.3" style="display: block;"><g opacity="0.3" transform="matrix(1,0,0,0.20000000298023224,68.40799713134766,44.162315368652344)"><path fill="rgb(0,189,184)" fill-opacity="1" d=" M49.013999938964844,-52.90549850463867 C49.013999938964844,-52.90549850463867 49.013999938964844,52.90549850463867 49.013999938964844,52.90549850463867 C49.013999938964844,52.90549850463867 -49.013999938964844,52.90549850463867 -49.013999938964844,52.90549850463867 C-49.013999938964844,52.90549850463867 -49.013999938964844,-52.90549850463867 -49.013999938964844,-52.90549850463867 C-49.013999938964844,-52.90549850463867 49.013999938964844,-52.90549850463867 49.013999938964844,-52.90549850463867z"></path><path stroke-linecap="butt" stroke-linejoin="miter" fill-opacity="0" stroke-miterlimit="4" stroke="rgb(149,154,161)" stroke-opacity="1" stroke-width="0" d=" M49.013999938964844,-52.90549850463867 C49.013999938964844,-52.90549850463867 49.013999938964844,52.90549850463867 49.013999938964844,52.90549850463867 C49.013999938964844,52.90549850463867 -49.013999938964844,52.90549850463867 -49.013999938964844,52.90549850463867 C-49.013999938964844,52.90549850463867 -49.013999938964844,-52.90549850463867 -49.013999938964844,-52.90549850463867 C-49.013999938964844,-52.90549850463867 49.013999938964844,-52.90549850463867 49.013999938964844,-52.90549850463867z"></path></g></g><g transform="matrix(1,0,0,1,160,80)" opacity="1" style="display: block;"><g opacity="1" transform="matrix(1,0,0,1,0,0)"><path stroke-linecap="round" stroke-linejoin="round" fill-opacity="0" stroke="rgb(0,189,184)" stroke-opacity="0.5" stroke-width="2" d=" M-11.5,8.5 C-11.5,8.5 -2,8.5 -2,8.5 C-2,8.5 1.187999963760376,-0.8119999766349792 1.187999963760376,-0.8119999766349792 C1.187999963760376,-0.8119999766349792 6.875,25.5 6.875,25.5 C6.875,25.5 11.25,8.75 11.25,8.75 C11.25,8.75 27.5,8.75 27.5,8.75"></path></g></g></g></svg>