<svg xmlns="http://www.w3.org/2000/svg" width="36" height="36" viewBox="0 0 36 36">
    <g fill="none" fill-rule="evenodd">
        <circle cx="18" cy="18" r="18" fill="#2B579A"/>
        <path fill="#FFF" d="M13.956 22.347c.043.356.072.666.085.931h.05c.02-.252.059-.555.12-.91.06-.354.114-.654.163-.899l2.297-10.464h2.971l2.384 10.307c.138.64.237 1.29.297 1.945h.039c.044-.634.127-1.265.248-1.887L24.51 11h2.705l-3.34 14.995h-3.159l-2.264-9.93c-.066-.286-.14-.66-.223-1.119-.082-.459-.134-.795-.154-1.006h-.04c-.025.244-.077.606-.153 1.087-.076.48-.137.836-.183 1.067l-2.129 9.899h-3.213L9 11.005h2.753l2.07 10.485c.046.215.09.502.133.857"/>
    </g>
</svg>
